# xmcd
#
# Track frame offsets:
#	150
#	11310
#	21381
#	32881
#	48166
#	66848
#	79244
#	91619
#	105633
#	119581
#	134637
#	146420
#	158690
#	171149
#	184324
#	198143
#	211928
#	224886
#	238387
#	250143
#
# Disc length: 3519 seconds
#
# Revision: 1
# Processed by: cddbd v1.5.2PL0 Copyright (c) Steve Scherf et al.
# Submitted via: audiograbber 1.83.01
#
DISCID=210dbd14
DTITLE=Story of blues - The definitive blues collection - CD2
DYEAR=2009
DGENRE=Blues
TTITLE0=John Lee Hooker - Boom Boom
TTITLE1=Jimmy Reed - Ain't tha lovin' you baby
TTITLE2=Howlin Wolf - Sotting on the top of the world
TTITLE3=Sonny Boy Williamson - Cross my heart
TTITLE4=Albert King - Cold women with warm hearts
TTITLE5=Lighnin' Hopkins - Evil hearted woman
TTITLE6=Little Walter - Key to the highway
TTITLE7=Menphis Slim - Messin' around
TTITLE8=Ray Charles - Come back baby
TTITLE9=Robert Cray - The welfare turns its back on
TTITLE10=Robert Johnson - I"m a steady rollin' man
TTITLE11=Elmore James - Mean mistreatin' mama
TTITLE12=T-Bone Walker - West side baby
TTITLE13=Big Joe Turner - Sweet sixteen
TTITLE14=Muddy Water - I'm ready
TTITLE15=Rod Piazza and The Mighty Flyers - Sinister women
TTITLE16=Big Bill Broonsy - I wonder
TTITLE17=B.B. King - Crying won't help you
TTITLE18=Sammy Myers - Sleeping in the ground
TTITLE19=Junior Wells - Hoodoo man
EXTD=
EXTT0=
EXTT1=
EXTT2=
EXTT3=
EXTT4=
EXTT5=
EXTT6=
EXTT7=
EXTT8=
EXTT9=
EXTT10=
EXTT11=
EXTT12=
EXTT13=
EXTT14=
EXTT15=
EXTT16=
EXTT17=
EXTT18=
EXTT19=
PLAYORDER=
